<?xml version="1.0" standalone="no"?>
<!DOCTYPE svg PUBLIC "-//W3C//DTD SVG 20010904//EN"
 "http://www.w3.org/TR/2001/REC-SVG-20010904/DTD/svg10.dtd">
<svg version="1.0" xmlns="http://www.w3.org/2000/svg"
 width="162.000000pt" height="154.000000pt" viewBox="0 0 162.000000 154.000000"
 preserveAspectRatio="xMidYMid meet">
<metadata>
Created by potrace 1.16, written by Peter Selinger 2001-2019
</metadata>
<g transform="translate(0.000000,154.000000) scale(0.100000,-0.100000)"
fill="#000000" stroke="none">
<path d="M899 1482 c11 -16 37 -44 56 -61 33 -29 34 -31 13 -31 -18 0 -14 -5
17 -19 22 -10 48 -27 57 -37 16 -19 13 -19 -107 -19 l-124 0 27 -23 27 -22
-30 6 c-20 4 -26 3 -17 -4 16 -11 -15 -22 -64 -22 -29 0 -139 -48 -131 -57 3
-2 32 1 66 8 47 10 64 10 73 1 9 -9 6 -12 -13 -12 -14 0 -41 -12 -60 -26 l-34
-26 33 7 33 7 -19 -39 c-11 -21 -25 -56 -31 -78 -8 -30 -20 -46 -51 -65 -45
-28 -52 -41 -17 -33 21 4 22 4 3 -11 -27 -22 -7 -20 49 4 26 11 49 20 51 20 2
0 -5 -18 -16 -39 -14 -29 -33 -46 -72 -65 -29 -14 -42 -24 -28 -22 72 13 108
19 138 21 l32 3 -32 -45 c-18 -25 -42 -52 -53 -59 -15 -11 -16 -14 -4 -14 16
0 57 28 91 63 22 21 48 22 48 2 0 -51 -65 -140 -113 -155 -29 -9 -28 -9 12 -5
61 8 78 19 105 73 30 58 56 84 56 55 0 -10 -8 -29 -17 -43 -16 -22 -16 -23 0
-17 9 4 25 10 34 14 14 6 13 1 -5 -21 -53 -68 1 -55 93 22 l40 32 -33 0 c-38
0 -41 14 -7 36 35 23 25 28 -19 10 -45 -19 -46 -8 -1 40 19 20 32 40 29 45
-11 18 -72 21 -103 5 -32 -17 -40 -11 -18 14 6 8 2 7 -9 -3 -20 -16 -22 -16
-28 -2 -9 25 -7 63 4 70 6 3 10 11 10 16 0 6 -13 1 -29 -11 l-30 -21 -6 35
c-9 47 1 75 31 82 38 10 29 27 -11 20 -61 -12 -34 27 42 62 33 14 40 21 31 30
-15 15 -4 15 25 1 15 -7 13 -2 -8 15 -29 25 -29 26 -7 26 12 0 39 -7 59 -15
19 -8 37 -15 38 -15 6 0 -22 69 -34 84 -12 14 -8 16 35 16 60 -1 109 -18 184
-64 32 -20 61 -36 65 -36 4 0 -12 21 -34 46 -54 61 -54 78 -2 59 63 -22 97
-42 125 -75 25 -30 26 -31 26 -8 l0 23 19 -25 19 -24 7 38 c12 59 -16 109 -88
156 -58 39 -96 52 -81 28 5 -8 2 -9 -12 -3 -38 16 -100 33 -163 45 -36 6 -87
23 -114 37 l-50 25 22 -30z"/>
<path d="M535 1455 c17 -8 36 -14 43 -15 7 0 10 -4 7 -10 -8 -13 -64 -13 -104
1 -18 6 -35 9 -38 5 -10 -10 19 -36 51 -44 l31 -8 -40 -27 c-27 -18 -53 -27
-80 -27 -49 0 -115 -18 -115 -30 0 -6 25 -10 55 -10 l55 0 -26 -39 c-33 -51
-27 -101 20 -163 l33 -43 -53 -21 c-30 -12 -54 -18 -54 -14 0 4 11 24 25 44
14 20 25 39 25 41 0 6 -60 -5 -95 -17 -65 -24 -146 -82 -175 -126 -16 -25 -30
-49 -30 -54 0 -11 14 -10 26 2 10 10 165 52 171 46 2 -2 -13 -16 -32 -31 -40
-30 -41 -46 -1 -20 49 32 45 9 -11 -60 -31 -38 -64 -88 -74 -110 -24 -54 -49
-205 -48 -285 1 -65 1 -65 11 -23 6 28 24 58 54 90 36 38 43 43 37 23 -4 -14
-8 -77 -8 -140 1 -92 5 -129 24 -188 13 -40 27 -75 32 -77 4 -3 11 16 14 42
10 70 32 144 53 176 l19 27 -5 -57 -4 -58 37 42 c40 47 67 58 40 17 -18 -27
-13 -46 7 -26 7 7 17 12 22 12 6 0 -11 -21 -36 -48 -45 -45 -78 -103 -78 -137
0 -10 16 0 43 27 24 24 63 61 88 84 49 43 79 109 79 170 0 18 9 56 20 84 11
28 20 54 20 58 0 10 -30 -35 -61 -91 l-26 -49 -7 34 c-8 41 -1 85 25 157 11
29 18 55 16 58 -9 8 -107 -112 -118 -144 -14 -43 -33 -32 -26 16 l6 36 -27
-30 c-15 -17 -40 -46 -55 -65 l-29 -35 7 114 c4 63 11 125 16 138 9 25 0 30
-19 11 -16 -16 -15 -11 8 66 16 51 32 77 73 120 l52 55 -2 -82 c-2 -65 0 -76
7 -52 6 17 19 41 30 55 l20 25 0 -35 c0 -26 3 -31 10 -20 7 11 10 3 11 -30 1
-54 17 -104 18 -56 1 44 30 145 57 197 30 61 30 65 -2 44 l-25 -16 3 33 c2 19
12 41 26 51 26 22 28 49 6 71 -21 22 -33 20 -27 -4 7 -26 -19 -36 -57 -20 -36
15 -46 42 -30 81 12 28 35 43 24 15 -4 -11 5 -14 41 -14 25 0 52 -6 60 -12 12
-10 15 -9 15 8 0 11 -5 22 -12 24 -6 2 -12 11 -14 20 -2 14 2 15 22 8 30 -12
32 2 4 30 -19 19 -19 20 0 30 10 5 37 10 59 10 41 0 56 15 24 23 -10 3 0 5 22
6 36 1 38 3 20 14 -11 6 -42 14 -70 17 l-50 6 60 29 c34 16 83 31 114 33 l54
5 -32 -29 -32 -29 58 0 c50 0 62 4 88 29 29 27 29 28 6 23 -15 -4 -33 1 -51
14 -40 30 -91 39 -230 38 -114 -1 -122 -2 -95 -14z"/>
<path d="M1430 1032 c0 -5 11 -19 25 -32 14 -13 25 -28 25 -35 0 -12 -35 -12
-63 0 -11 4 -29 2 -44 -6 -21 -12 -29 -11 -55 4 -17 10 -33 15 -36 13 -11 -12
10 -37 65 -78 32 -23 62 -49 66 -56 12 -18 87 85 87 118 0 15 -10 36 -22 47
-30 27 -48 36 -48 25z"/>
<path d="M995 680 c-9 -28 13 -99 39 -125 28 -28 100 -66 141 -74 l29 -7 -52
-32 c-29 -18 -54 -32 -56 -32 -1 0 -9 25 -16 55 l-13 55 -34 -40 c-40 -47 -57
-52 -42 -13 6 16 8 52 4 86 -6 51 -9 56 -23 45 -13 -11 -15 -10 -10 10 8 30 3
28 -33 -13 -17 -19 -52 -44 -78 -55 -69 -31 -118 -68 -129 -98 -23 -62 -22
-66 9 -29 22 26 58 51 117 78 46 21 87 39 90 39 12 0 -27 -35 -73 -65 -27 -18
-69 -52 -92 -76 -51 -53 -103 -164 -102 -216 l0 -38 14 46 c11 33 27 56 62 85
114 94 149 112 124 66 -18 -34 -12 -37 17 -10 35 35 73 48 130 47 51 0 54 2
-41 -37 -37 -15 -97 -73 -97 -93 0 -6 13 -1 29 10 37 26 139 51 214 51 60 0
92 11 115 39 10 14 11 11 6 -14 -6 -29 -5 -29 22 10 l29 40 3 -28 c7 -60 -102
-217 -183 -264 -11 -6 18 2 65 18 105 37 125 50 149 97 27 50 28 13 1 -46
l-19 -42 34 25 c18 15 41 37 49 51 23 33 31 106 16 134 -21 38 -25 173 -7 209
8 17 11 31 6 31 -6 0 -6 8 1 19 5 11 10 32 10 47 0 26 -1 26 -30 -15 -27 -37
-63 -61 -91 -61 -5 0 -14 10 -19 23 -5 12 -9 16 -9 10 -1 -23 -21 -14 -21 9 0
21 0 21 -16 2 -15 -18 -15 -18 -9 11 l7 30 -24 -21 c-32 -30 -82 -54 -112 -54
-43 0 -101 95 -76 125 10 12 9 15 -3 15 -9 0 -18 -9 -22 -20z"/>
</g>
</svg>
